<?xml version="1.0" encoding="UTF-8" standalone="no"?>
<svg
        xmlns:rdf="http://www.w3.org/1999/02/22-rdf-syntax-ns#"
        xmlns:cc="http://creativecommons.org/ns#"
        xmlns:dc="http://purl.org/dc/elements/1.1/"
        height="48"
        width="48"
        viewBox="0 0 1000 1000"
        version="1.1"
        id="svg4089"
        enable-background="new"
        xmlns="http://www.w3.org/2000/svg">
    <defs
            id="defs4">
        <clipPath
                id="clipPath1513"
                clipPathUnits="userSpaceOnUse">
            <rect
                    y="200"
                    x="240"
                    height="620"
                    width="560"
                    id="rect1515"
                    style="fill:#fffffa;fill-opacity:0.981982;stroke:none;stroke-width:50;stroke-linecap:round;stroke-linejoin:round;stroke-miterlimit:4;stroke-dasharray:none;stroke-opacity:1;paint-order:stroke markers fill"/>
        </clipPath>
    </defs>
    <metadata
            id="metadata7">
        <rdf:RDF>
            <cc:Work
                    rdf:about="">
                <dc:format>image/svg+xml</dc:format>
                <dc:type
                        rdf:resource="http://purl.org/dc/dcmitype/StillImage"/>
            </cc:Work>
        </rdf:RDF>
    </metadata>
    <g
            id="g9063">
        <g
                id="text11157"
                clip-path="url(#clipPath1513)"
                mask="none">
            <path
                    style="color:#000000;-inkscape-font-specification:'Vice City Sans Bold, ';fill:#e51a1a;-inkscape-stroke:none"
                    d="m 453.86719,-112.14648 c -106.76363,1.874 -214.71781,25.095501 -309.26172,82.847652 l -0.21875,0.132812 -0.2168,0.136719 C 38.488873,37.197486 -30.355213,158.47432 -18.691406,286.79687 c 1.268768,113.0231 61.039257,226.45829 168.884766,277.11133 127.6291,73.55973 269.71387,79.09335 394.625,99.85547 33.64444,6.82216 70.80634,18.5524 97.4375,35.24805 26.77657,16.7868 41.73131,34.62973 45.32226,62.3164 l 0.0957,0.73438 0.11914,0.73242 c 7.59308,46.42216 -26.60554,94.26934 -72.99414,109.85742 l -0.61719,0.20703 -0.61328,0.22657 C 502.14735,914.18388 366.9343,905.04658 268.07031,841.40625 l -3.49804,-2.25195 -3.85352,-1.56641 c -8.02341,-3.26521 -22.21327,-18.19725 -36.5918,-40.11719 -14.37853,-21.91993 -23.66597,-49.91284 -60.09961,-69.51953 l -20.80078,-11.19336 -20.97461,10.86914 C 65.85489,756.85088 9.4576055,786.0749 -46.939453,815.29883 l -35.259766,18.26953 13.96875,37.17578 C -13.492064,1016.4143 117.05696,1121.6788 265.89844,1155.1836 l 0.0293,0.01 0.0293,0.01 c 155.62468,34.8136 325.89827,34.8892 479.78711,-25.5645 l 0.17969,-0.07 0.17773,-0.072 C 880.09918,1075.5136 986.72902,947.50895 989.17578,795.62695 l -0.14062,2.88867 C 1000.231,660.16153 935.4918,509.9608 800.06445,448.14062 672.27177,381.89255 533.54686,374.28845 408.74609,354.44141 c -30.2584,-6.13215 -62.36773,-14.62212 -85.93164,-27.05664 -23.40264,-12.34943 -36.74384,-25.4935 -42.61718,-46.11524 -5.26228,-24.78884 2.53849,-45.58667 20.83203,-65.82226 18.52393,-20.49046 48.37531,-36.59104 75.03711,-41.30665 l 0.93164,-0.16601 0.92578,-0.20313 c 113.75505,-25.13004 246.43889,-0.37361 318.45117,86.82813 l -0.49023,-0.76758 c 9.96159,13.08087 27.5525,25.24888 44.02148,26.18945 20.02573,1.14371 31.16495,-5.79236 39.49414,-10.44336 16.65838,-9.30199 30.61098,-15.45986 19.87695,-13.17187 l 5.83008,-1.24219 5.30274,-2.72656 c 39.82643,-20.48217 79.65207,-40.96509 119.47851,-61.44727 l 38.29102,-19.6914 -18.22071,-39.01172 C 884.42545,-2.0298164 741.35675,-83.510157 597.01562,-102.75 c -46.5638,-6.70027 -94.73319,-10.24631 -143.14843,-9.39648 z m 27.90234,89.603511 c 34.42051,0.560605 68.90479,3.485402 102.80469,8.375 l 0.24414,0.03516 0.24609,0.0332 c 104.3952,13.88185661 205.73332,67.846204 262.63477,152.765629 -24.65807,12.68129 -49.31654,25.36363 -73.97461,38.04492 -10.37467,2.8726 -17.95969,6.47339 -23.50977,9.95508 C 649.52536,80.616623 492.59248,57.279303 360.06836,86.142578 312.79343,94.599533 267.8804,118.72091 234.66992,155.45703 c -33.30903,36.84514 -54.22383,90.19473 -41.60547,146.34766 l 0.21094,0.93554 0.25,0.92579 c 13.39699,49.57235 50.04739,83.05181 87.53906,102.83593 37.49168,19.78413 77.46025,29.09106 110.81641,35.8125 l 0.88867,0.17774 0.89453,0.14453 c 131.45994,20.98553 259.78174,29.80843 366.45117,85.51562 l 1.11133,0.58008 1.13867,0.51758 c 94.57127,42.83924 146.02217,156.80741 137.50586,262.04883 l -0.11718,1.4414 -0.0234,1.44727 c -1.76713,109.69403 -83.66088,210.6035 -186.90235,252.2578 -132.72091,52.0774 -285.43267,53.193 -427.32226,21.4551 -0.006,-0 -0.0131,-0 -0.0195,-0 C 178.18675,1043.7253 81.881032,971.89368 31.736328,875.2832 65.327915,857.87665 98.92013,840.471 132.51172,823.06445 c 5.03781,6.59643 10.78561,14.2798 16.81445,23.47071 15.7668,24.03633 35.90166,55.31183 73.91602,72.24023 125.26713,78.89604 284.99816,88.20711 420.44922,38.52148 C 728.62912,928.55231 791.29438,843.26328 776.13477,748.86914 768.32014,691.34771 730.96145,649.03967 689.77148,623.2168 648.35086,597.24932 601.91722,583.99124 561.91992,575.93555 l -0.73047,-0.14649 -0.73633,-0.12304 C 427.68853,553.50593 298.01514,546.23437 193.99609,485.93945 l -1.89453,-1.09765 -1.99219,-0.90821 C 116.64682,450.46354 71.276591,367.56729 70.707031,284.75781 l -0.01367,-2.06836 -0.207031,-2.06054 C 61.361711,189.10462 112.50575,96.490939 191.48828,46.898437 276.02665,-4.6583788 378.60804,-24.223154 481.76953,-22.542969 Z M 736.07812,197.24609 c -0.0768,0.0464 -0.21638,0.18685 -0.29101,0.22852 -1.3652,0.76232 -1.49664,0.26933 0.29101,-0.22852 z"
                    id="path2"/>
        </g>
        <path
                id="path11139"
                d="M 515.82812,-0.10742188 C 412.60366,5.1057775 323.79993,67.815032 244.81,129.10212 147.71022,210.66517 54.910027,306.64029 10.12199,427.56717 -21.723973,519.80154 31.025914,612.37878 79.619072,688.23639 159.98236,804.20745 262.13716,910.01185 389.07678,974.44613 c 59.79318,32.96847 132.54663,32.30717 193.71798,3.36331 C 717.36635,918.46573 830.60303,816.87102 919.47233,700.94704 969.76125,631.66492 1020.3451,545.0143 991.52033,456.91449 950.3837,327.67581 859.44775,220.60305 761.40501,129.81352 691.32072,70.034062 611.22973,6.5879516 515.82812,-0.10742188 Z M 276.60742,213.96094 c 89.17295,1.10783 178.52466,-2.49184 267.55804,2.36954 96.63641,7.52182 185.65375,71.67847 219.87144,162.86706 C 816.39365,506.31955 780.35253,676.32579 656.47821,748.0622 573.27116,796.34452 473.15088,787.50249 380.7876,786.52099 334.44497,786.87999 280,780 280.74706,712.92384 c -0.96973,-166.31016 0.43259,-332.70863 -4.13964,-498.9629 z"
                style="display:inline;fill:#e51a1a;fill-opacity:1;stroke:none;stroke-width:80;stroke-linecap:round;stroke-linejoin:round;stroke-miterlimit:4;stroke-dasharray:none;stroke-opacity:1;paint-order:stroke markers fill"/>
    </g>
</svg>
